# xmcd
#
# Track frame offsets: 
#        150
#        19500
#        41150
#        59063
#        85088
#        104463
#        125625
#        146500
#        167700
#        192050
#        211825
#        234825
#
# Disc length: 3419 seconds
#
# Revision: 0
# Processed by: cddbd v1.5.1PL2 Copyright (c) Steve Scherf et al.
# Submitted via: ExactAudioCopy v0.95b3
#
DISCID=a00d590c
DTITLE=Whitney Houston - The best of Whitney Houston
DYEAR=1900
DGENRE=Country
TTITLE0=How will I know
TTITLE1=Greatest love of all
TTITLE2=Saving all my love for you
TTITLE3=It isn't, it wasn't, it ain't never gonna be
TTITLE4=I'm your baby tonight
TTITLE5=One moment in time
TTITLE6=Where do broken hearts go
TTITLE7=I wanna dance with somebody
TTITLE8=Love will save the day
TTITLE9=So emotional
TTITLE10=Didn't we almost have it all
TTITLE11=Dancando lambada
EXTD=
EXTT0=
EXTT1=
EXTT2=
EXTT3=
EXTT4=
EXTT5=
EXTT6=
EXTT7=
EXTT8=
EXTT9=
EXTT10=
EXTT11=
PLAYORDER=
